<?xml version="1.0" encoding="UTF-8"?>
<svg width="39px" height="34px" viewBox="0 0 39 34" version="1.1" xmlns="http://www.w3.org/2000/svg" xmlns:xlink="http://www.w3.org/1999/xlink">
    <!-- Generator: Sketch 53 (72520) - https://sketchapp.com -->
    <title>maobiyantai-</title>
    <desc>Created with Sketch.</desc>
    <defs>
        <filter x="-23.9%" y="-29.2%" width="147.7%" height="158.3%" filterUnits="objectBoundingBox" id="filter-1">
            <feOffset dx="3" dy="2" in="SourceAlpha" result="shadowOffsetOuter1"></feOffset>
            <feGaussianBlur stdDeviation="1" in="shadowOffsetOuter1" result="shadowBlurOuter1"></feGaussianBlur>
            <feColorMatrix values="0 0 0 0 0   0 0 0 0 0   0 0 0 0 0  0 0 0 0.5 0" type="matrix" in="shadowBlurOuter1" result="shadowMatrixOuter1"></feColorMatrix>
            <feMerge>
                <feMergeNode in="shadowMatrixOuter1"></feMergeNode>
                <feMergeNode in="SourceGraphic"></feMergeNode>
            </feMerge>
        </filter>
    </defs>
    <g id="Page-1" stroke="none" stroke-width="1" fill="none" fill-rule="evenodd">
        <g id="Desktop" transform="translate(-650.000000, -507.000000)" fill="#676767" fill-rule="nonzero">
            <g id="Group-5" transform="translate(615.000000, 461.000000)">
                <g id="maobiyantai-" filter="url(#filter-1)" transform="translate(51.112476, 68.987185) rotate(-13.000000) translate(-51.112476, -68.987185) translate(29.112476, 50.987185)">
                    <path d="M5.42430621,18.7598746 L5.36364467,18.7496774 C5.36364467,18.7496774 8.39250789,21.5122935 12.2591178,22.1649147 C12.5955646,22.2216883 12.9353814,22.2572407 13.2813767,22.2798399 C14.0607087,22.3283455 14.8633504,22.2861787 15.6797533,22.1059362 C16.3999876,21.9459401 17.0948932,21.6911862 17.7456149,21.348587 C18.2241669,21.096964 19.2806883,20.2166971 19.796592,19.4576942 L17.5664388,16.360224 C17.5594178,16.358846 12.3385957,19.9264901 5.42430621,18.7598746 L5.42430621,18.7598746 Z M17.1971337,20.341544 C15.7651287,21.0936568 14.1699555,21.3303973 12.4599187,21.0421196 C11.4008697,20.8635307 10.4036056,20.5033213 9.52906876,20.0921258 C13.07861,19.8451881 15.8409556,18.6237282 17.2375747,17.8801589 L18.3367839,19.4064326 C17.9118724,19.8333373 17.4161892,20.2266187 17.1971337,20.341544 L17.1971337,20.341544 Z M41.0879415,1.07764363 C41.0879415,1.07764363 32.7472639,7.16923408 31.0762638,8.32537679 C29.4077913,9.48234628 24.8115582,12.0856655 21.6582827,13.5014235 C18.501918,14.9130475 18.3176867,15.8181185 18.3176867,15.8181185 L19.4340271,17.3689206 L20.5503675,18.9197227 C20.5503675,18.9197227 21.4777024,19.0506328 23.8912443,16.6030277 C26.3019779,14.1545959 30.3362495,10.7771158 32.0089347,9.62097313 C33.6774072,8.46455484 42.3140905,2.78085261 42.3140905,2.78085266 L41.701016,1.92924812 L41.0879415,1.07764363 Z M43.7826047,1.25044492 L43.409087,0.735623833 L43.0392203,0.218046717 L42.5115212,0.584319325 L42.2450038,0.210605498 L41.7178664,0.573295333 L42.3573399,1.46513748 L42.9999026,2.35449918 L43.5250741,1.98739979 L43.254344,1.61644195 L43.7826047,1.25044492 Z" id="Shape"></path>
                </g>
            </g>
        </g>
    </g>
</svg>